<mxfile host="app.diagrams.net" modified="2024-03-18T07:54:45.516Z" agent="Mozilla/5.0 (Windows NT 10.0; Win64; x64) AppleWebKit/537.36 (KHTML, like Gecko) Chrome/122.0.0.0 Safari/537.36 Edg/122.0.0.0" etag="RKjgsgu-SqAYN87a2CnZ" version="24.0.7" type="device">
  <diagram name="第 1 页" id="PrCAuNZcClRXwV47yXRq">
    <mxGraphModel dx="1379" dy="759" grid="1" gridSize="10" guides="1" tooltips="1" connect="1" arrows="1" fold="1" page="1" pageScale="1" pageWidth="827" pageHeight="1169" math="0" shadow="0">
      <root>
        <mxCell id="0" />
        <mxCell id="1" parent="0" />
        <mxCell id="C0SI45p9qejPsa8dpuFQ-10" value="" style="edgeStyle=orthogonalEdgeStyle;rounded=0;orthogonalLoop=1;jettySize=auto;html=1;" edge="1" parent="1" source="C0SI45p9qejPsa8dpuFQ-1" target="C0SI45p9qejPsa8dpuFQ-5">
          <mxGeometry relative="1" as="geometry" />
        </mxCell>
        <mxCell id="C0SI45p9qejPsa8dpuFQ-1" value="&lt;font style=&quot;font-size: 20px;&quot;&gt;审核模型&lt;/font&gt;&lt;div style=&quot;font-size: 20px;&quot;&gt;&lt;font style=&quot;font-size: 20px;&quot;&gt;（gpt4）&lt;/font&gt;&lt;/div&gt;" style="shape=hexagon;perimeter=hexagonPerimeter2;whiteSpace=wrap;html=1;fixedSize=1;fillColor=#d5e8d4;strokeColor=#82b366;" vertex="1" parent="1">
          <mxGeometry x="360" y="355" width="118" height="100" as="geometry" />
        </mxCell>
        <mxCell id="C0SI45p9qejPsa8dpuFQ-3" style="edgeStyle=orthogonalEdgeStyle;rounded=0;orthogonalLoop=1;jettySize=auto;html=1;" edge="1" parent="1" source="C0SI45p9qejPsa8dpuFQ-2" target="C0SI45p9qejPsa8dpuFQ-1">
          <mxGeometry relative="1" as="geometry" />
        </mxCell>
        <mxCell id="C0SI45p9qejPsa8dpuFQ-4" value="&lt;font style=&quot;font-size: 20px;&quot;&gt;作为知识&lt;/font&gt;" style="edgeLabel;html=1;align=center;verticalAlign=middle;resizable=0;points=[];" vertex="1" connectable="0" parent="C0SI45p9qejPsa8dpuFQ-3">
          <mxGeometry x="0.098" y="-2" relative="1" as="geometry">
            <mxPoint x="-15" y="-2" as="offset" />
          </mxGeometry>
        </mxCell>
        <mxCell id="C0SI45p9qejPsa8dpuFQ-2" value="&lt;font style=&quot;font-size: 20px;&quot;&gt;召回的内容&lt;/font&gt;" style="shape=cylinder3;whiteSpace=wrap;html=1;boundedLbl=1;backgroundOutline=1;size=15;fillColor=#dae8fc;strokeColor=#6c8ebf;" vertex="1" parent="1">
          <mxGeometry x="110" y="367.5" width="150" height="75" as="geometry" />
        </mxCell>
        <mxCell id="C0SI45p9qejPsa8dpuFQ-5" value="&lt;span style=&quot;font-size: 20px;&quot;&gt;判别结果&lt;/span&gt;" style="rounded=1;whiteSpace=wrap;html=1;fillColor=#e1d5e7;strokeColor=#9673a6;" vertex="1" parent="1">
          <mxGeometry x="520" y="375" width="120" height="60" as="geometry" />
        </mxCell>
        <mxCell id="C0SI45p9qejPsa8dpuFQ-8" style="edgeStyle=orthogonalEdgeStyle;rounded=0;orthogonalLoop=1;jettySize=auto;html=1;entryX=0.5;entryY=1;entryDx=0;entryDy=0;" edge="1" parent="1" source="C0SI45p9qejPsa8dpuFQ-7" target="C0SI45p9qejPsa8dpuFQ-1">
          <mxGeometry relative="1" as="geometry" />
        </mxCell>
        <mxCell id="C0SI45p9qejPsa8dpuFQ-9" value="&lt;font style=&quot;font-size: 20px;&quot;&gt;输入&lt;/font&gt;" style="edgeLabel;html=1;align=center;verticalAlign=middle;resizable=0;points=[];" vertex="1" connectable="0" parent="C0SI45p9qejPsa8dpuFQ-8">
          <mxGeometry x="-0.0182" relative="1" as="geometry">
            <mxPoint as="offset" />
          </mxGeometry>
        </mxCell>
        <mxCell id="C0SI45p9qejPsa8dpuFQ-7" value="&lt;font style=&quot;font-size: 20px;&quot;&gt;问题和&lt;/font&gt;&lt;div style=&quot;font-size: 20px;&quot;&gt;&lt;font style=&quot;font-size: 20px;&quot;&gt;大模型的回答&lt;/font&gt;&lt;/div&gt;" style="ellipse;shape=cloud;whiteSpace=wrap;html=1;fillColor=#f8cecc;strokeColor=#b85450;" vertex="1" parent="1">
          <mxGeometry x="339" y="510" width="160" height="120" as="geometry" />
        </mxCell>
        <mxCell id="C0SI45p9qejPsa8dpuFQ-13" style="edgeStyle=orthogonalEdgeStyle;rounded=0;orthogonalLoop=1;jettySize=auto;html=1;" edge="1" parent="1" source="C0SI45p9qejPsa8dpuFQ-12" target="C0SI45p9qejPsa8dpuFQ-1">
          <mxGeometry relative="1" as="geometry" />
        </mxCell>
        <mxCell id="C0SI45p9qejPsa8dpuFQ-14" value="&lt;font style=&quot;font-size: 20px;&quot;&gt;约束&lt;/font&gt;" style="edgeLabel;html=1;align=center;verticalAlign=middle;resizable=0;points=[];" vertex="1" connectable="0" parent="C0SI45p9qejPsa8dpuFQ-13">
          <mxGeometry x="-0.1733" y="3" relative="1" as="geometry">
            <mxPoint as="offset" />
          </mxGeometry>
        </mxCell>
        <mxCell id="C0SI45p9qejPsa8dpuFQ-12" value="&lt;font style=&quot;font-size: 20px;&quot;&gt;相关的标准和依据&lt;/font&gt;" style="rounded=1;whiteSpace=wrap;html=1;fillColor=#ffe6cc;strokeColor=#d79b00;" vertex="1" parent="1">
          <mxGeometry x="359" y="220" width="120" height="60" as="geometry" />
        </mxCell>
      </root>
    </mxGraphModel>
  </diagram>
</mxfile>
